Coordinates
version=1
nRows=9
nColumns=24
inDegrees=yes

Units are S.I. units (second, meters, Newtons, ...)
Angles are in degrees.

endheader
time	pelvis_tilt	pelvis_list	pelvis_rotation	pelvis_tx	pelvis_ty	pelvis_tz	hip_flexion_r	hip_adduction_r	hip_rotation_r	knee_angle_r	ankle_angle_r	subtalar_angle_r	mtp_angle_r	hip_flexion_l	hip_adduction_l	hip_rotation_l	knee_angle_l	ankle_angle_l	subtalar_angle_l	mtp_angle_l	lumbar_extension	lumbar_bending	lumbar_rotation
      2.49500000	    -11.51578935	      7.44255737	     -3.50828315	     -2.30033302	     -0.04078781	     -0.25734009	     14.55019127	    -15.72300985	     -6.60672562	    -58.69928897	    -28.46557313	    -18.59812063	      6.77145841	     32.68726377	      6.35794565	     -3.30837626	    -27.87437751	      0.00373881	    -14.86685268	    -10.96394124	      8.71540113	     -8.15999355	      4.45941619
      2.50000000	    -11.45672565	      7.27314099	     -3.40488866	     -2.29313201	     -0.03916558	     -0.25820656	     15.47649276	    -15.39166239	     -6.34998747	    -59.67587140	    -27.46749481	    -18.96810862	      7.10233926	     31.95541294	      6.37372855	     -3.08069140	    -27.57597958	      0.41221317	    -14.75462860	    -10.81307308	      8.59938971	     -8.00350647	      4.25374491
      2.50500000	    -11.41412687	      7.06503635	     -3.33257790	     -2.28605722	     -0.03751829	     -0.25901772	     16.42435014	    -15.00506285	     -6.09005013	    -60.55883232	    -26.39712804	    -19.10814924	      7.56700554	     31.25313482	      6.31884195	     -2.91124616	    -27.28152817	      0.75611676	    -14.64757807	    -10.68445704	      8.48606139	     -7.79530711	      4.03663404
      2.51000000	    -11.38005721	      6.85736715	     -3.25339366	     -2.27894501	     -0.03588464	     -0.25987901	     17.35713894	    -14.63538448	     -5.87730547	    -61.33179703	    -25.33277783	    -19.07647907	      8.23152600	     30.53835656	      6.27145597	     -2.71517494	    -26.95032005	      1.12438709	    -14.55043104	    -10.55476239	      8.38950698	     -7.57958475	      3.85631837
      2.51500000	    -11.32848314	      6.62086431	     -3.17955037	     -2.27186119	     -0.03414863	     -0.26075589	     18.21688345	    -14.22936574	     -5.64468920	    -61.87652990	    -24.82300032	    -19.17092499	     11.35817708	     29.78338495	      6.20163557	     -2.45963346	    -26.57255896	      1.36589806	    -14.54088114	    -10.42419799	      8.27411875	     -7.32808216	      3.64748181
      2.52000000	    -11.27229511	      6.31987944	     -3.11123436	     -2.26485664	     -0.03241402	     -0.26150422	     19.07747500	    -13.73763036	     -5.49021028	    -62.42829681	    -23.80500004	    -18.88896542	     11.77022192	     29.03604913	      6.03611904	     -2.26011598	    -26.22053294	      1.70643276	    -14.40757138	    -10.34665698	      8.14159300	     -7.02002351	      3.44169240
      2.52500000	    -11.23231067	      6.13378699	     -3.06862041	     -2.25781004	     -0.03075662	     -0.26234208	     19.97077287	    -13.39273724	     -5.28516372	    -62.90327114	    -22.85491584	    -18.41356942	     13.04939636	     28.27229797	      5.99808448	     -2.04404463	    -25.78105474	      1.92109333	    -14.47891563	    -10.38755718	      8.05134551	     -6.80702914	      3.29907814
      2.53000000	    -11.17479057	      5.76088675	     -2.94351512	     -2.25080509	     -0.02903809	     -0.26313429	     20.74641642	    -12.85063681	     -5.27711729	    -63.22885412	    -21.98282544	    -18.04479186	     13.54652811	     27.51648675	      5.77134609	     -1.81029088	    -25.41612788	      2.29378390	    -14.30538589	    -10.30735822	      7.91665254	     -6.42778017	      3.02084003
      2.53500000	    -11.10084943	      5.54828575	     -2.81997399	     -2.24377770	     -0.02737721	     -0.26404999	     21.48934976	    -12.51628672	     -5.18504636	    -63.38714272	    -21.53755847	    -17.76679246	     17.20868092	     26.71100695	      5.73385668	     -1.51674071	    -24.96899725	      2.55252780	    -14.26725909	    -10.55581649	      7.78242228	     -6.20254499	      2.80480434
